<svg width="16" height="16" viewBox="0 0 16 16" fill="none" xmlns="http://www.w3.org/2000/svg">
<path d="M12.9079 0H3.09214C1.38712 0 0 1.38683 0 3.09188V6.35804V12.9081C0 14.6132 1.38712 16 3.09214 16H12.9082C14.6132 16 16 14.6132 16 12.9081V6.35772V3.09156C15.9997 1.38651 14.6129 0 12.9079 0ZM13.7947 1.84383L14.1485 1.84254V2.19465V4.55455L11.4455 4.56327L11.4362 1.85158L13.7947 1.84383ZM5.71631 6.35772C6.22882 5.64865 7.06019 5.18358 8 5.18358C8.93981 5.18358 9.77118 5.64865 10.283 6.35772C10.6164 6.82054 10.8162 7.38663 10.8162 7.99984C10.8162 9.55256 9.55172 10.8158 7.99968 10.8158C6.44667 10.8158 5.18348 9.55256 5.18348 7.99984C5.1838 7.38663 5.38293 6.82054 5.71631 6.35772ZM14.4409 12.9078C14.4409 13.7537 13.7531 14.4408 12.9079 14.4408H3.09214C2.24657 14.4408 1.55882 13.7537 1.55882 12.9078V6.35772H3.94707C3.74084 6.86507 3.62498 7.41922 3.62498 7.99984C3.62498 10.4117 5.58722 12.3753 8 12.3753C10.4125 12.3753 12.3747 10.4117 12.3747 7.99984C12.3747 7.41922 12.2582 6.86507 12.052 6.35772H14.4409V12.9078Z" fill="#4E85FF"/>
</svg>
